# xmcd
#
# Track frame offsets:
#	150
#	12726
#	29487
#	42345
#	54675
#	66822
#	84250
#	96700
#	110154
#	122023
#	135597
#	159440
#	191858
#	203079
#	216867
#	230237
#	243346
#
# Disc length: 3405 seconds
#
# Revision: 0
# Processed by: cddbd v1.5.1PL0 Copyright (c) Steve Scherf et al.
# Submitted via: dBpowerAMP V4.0
#
DISCID=020d4b11
DTITLE=Lightnin' Hopkins - Blues Masters: The Very Best Of Lightnin' Hopkins
DYEAR=1900
DGENRE=Blues
TTITLE0=Katie Mae
TTITLE1=Shotgun Blues
TTITLE2=Baby, Please Don't Go
TTITLE3=Automobile Blues
TTITLE4=Give Me Central 209 (Hello Central)
TTITLE5=Coffee Blues
TTITLE6=I'm Beggin' You
TTITLE7=Contrary Mary
TTITLE8=Moanin' Blues
TTITLE9=Penitentiary Blues
TTITLE10=Fan It
TTITLE11=Conversation Blues
TTITLE12=Last Night Blues
TTITLE13=Mighty Crazy
TTITLE14=Mojo Hand
TTITLE15=Baby Don't You Tear My Clothes
TTITLE16=Bonus Track
EXTD=
EXTT0=
EXTT1=
EXTT2=
EXTT3=
EXTT4=
EXTT5=
EXTT6=
EXTT7=
EXTT8=
EXTT9=
EXTT10=
EXTT11=
EXTT12=
EXTT13=
EXTT14=
EXTT15=
EXTT16=
PLAYORDER=
